/* XPM */
static char * image_name[] = {
"63 24 4 1",
" 	c #E7E7E7E7E7E7",
".	c #6F6F6F6F6F6F",
"X	c #BFBFBFBFBFBF",
"o	c #5B5B00000000",
"                                                               ",
"                                                              .",
"  XXXXXXXXXXXXXXXXXXXXXXXXXXXXXXXXXXXXXXXXXXXXXXXXXXXXXXXXXXX..",
"  XXXXXXXXXXXXXXXXXXXXXXXXXXXXXXXXXXXXXXXXXXXXXXXXXXXXXXXXXXX..",
"  XXXXXXXXXXXXXXXXXXXXXXXXXXXXXXXXXXXXXXXXXXXXXXXXXXXXXXXXXXX..",
"  XXXXXXXXXXXXXXXXXXXXXXXXXXXXXXXXXXXXXXXXXXXXXXXXXXXXXXXXXXX..",
"  XXXooooooXXXXXXXXXXXXXXXXXXXXXXXoXXXXXXXXXXXXXXXXXXXXXXXXXX..",
"  XXXoXXXXooXXXXXXXXXXXXXXXXXXXXXXXXXXXXXXXXXXXXXXXXXXXXXXXXX..",
"  XXXoXXXXXoXXXXXXXXXXXXXXXXXXXXXXXXXXXXXXXXXXXXXXXXXXXXXXXXX..",
"  XXXoXXXXXoXXoXoXXXooooXXoXXXXXoXoXXXooooXXXoXXXXoXXooooXXXX..",
"  XXXoXXXXooXXooXXXoXXXXoXXoXXXoXXoXXXoXXoXXXoXXXXoXoXXXXoXXX..",
"  XXXooooooXXXoXXXXoXXXXoXXoXXXoXXoXXoXXXXoXXoXXXXoXoXXXXXXXX..",
"  XXXoXXXXXXXXoXXXXooooooXXoXXXoXXoXXoXXXXoXXoXXXXoXoooXXXXXX..",
"  XXXoXXXXXXXXoXXXXoXXXXXXXXoXoXXXoXXoXXXXoXXoXXXXoXXXXoooXXX..",
"  XXXoXXXXXXXXoXXXXoXXXXXXXXoXoXXXoXXoXXXXoXXoXXXXoXXXXXXoXXX..",
"  XXXoXXXXXXXXoXXXXXoXXXoXXXXoXXXXoXXXoXXoXXXoXXXooXoXXXXoXXX..",
"  XXXoXXXXXXXXoXXXXXXoooXXXXXoXXXXoXXXooooXXXXoooXoXXooooXXXX..",
"  XXXXXXXXXXXXXXXXXXXXXXXXXXXXXXXXXXXXXXXXXXXXXXXXXXXXXXXXXXX..",
"  XXXXXXXXXXXXXXXXXXXXXXXXXXXXXXXXXXXXXXXXXXXXXXXXXXXXXXXXXXX..",
"  XXXXXXXXXXXXXXXXXXXXXXXXXXXXXXXXXXXXXXXXXXXXXXXXXXXXXXXXXXX..",
"  XXXXXXXXXXXXXXXXXXXXXXXXXXXXXXXXXXXXXXXXXXXXXXXXXXXXXXXXXXX..",
"  XXXXXXXXXXXXXXXXXXXXXXXXXXXXXXXXXXXXXXXXXXXXXXXXXXXXXXXXXXX..",
"  .............................................................",
" .............................................................."};
