/* XPM */
static char * image_name[] = {
"65 24 4 1",
" 	c #E7E7E7E7E7E7",
".	c #6F6F6F6F6F6F",
"X	c #BFBFBFBFBFBF",
"o	c #5B5B00000000",
"                                                                 ",
"                                                                .",
"  XXXXXXXXXXXXXXXXXXXXXXXXXXXXXXXXXXXXXXXXXXXXXXXXXXXXXXXXXXXXX..",
"  XXXXXXXXXXXXXXXXXXXXXXXXXXXXXXXXXXXXXXXXXXXXXXXXXXXXXXXXXXXXX..",
"  XXXXXXXXXXXXXXXXXXXXXXXXXXXXXXXXXXXXXXXXXXXXXXXXXXXXXXXXXXXXX..",
"  XXXXXXXXXXXXXXXXXXXXXXXXXXXXXXXXXXXXXXXXXXXXXXXXXXXXXXXXXXXXX..",
"  XXXXXooooXXXXXXXXXXXXXXXXXXXXXXXXXXXXXXXXXXXXXXXXXXXXXXXXXXXX..",
"  XXXXooXXXoXXXXXXXXXXXXXXXXXXXoXXXXXXXXXXXXXXXXXXXoXXXXXXXXXXX..",
"  XXXXoXXXXXoXXXXXXXXXXXXXXXXXXoXXXXXXXXXXXXXXXXXXXoXXXXXXXXXXX..",
"  XXXoXXXXXXXXXXooooXXXoXoooXXoooXXXooooXXXoXoooXXoooXXooooXXXX..",
"  XXXoXXXXXXXXXXoXXoXXXooXXXoXXoXXXoXXXXoXXooXXXoXXoXXoXXXXoXXX..",
"  XXXoXXXXXXXXXoXXXXoXXoXXXXoXXoXXXoXXXXoXXoXXXXoXXoXXoXXXXXXXX..",
"  XXXoXXXXXXXXXoXXXXoXXoXXXXoXXoXXXooooooXXoXXXXoXXoXXoooXXXXXX..",
"  XXXoXXXXXXXXXoXXXXoXXoXXXXoXXoXXXoXXXXXXXoXXXXoXXoXXXXXoooXXX..",
"  XXXXoXXXXXoXXoXXXXoXXoXXXXoXXoXXXoXXXXXXXoXXXXoXXoXXXXXXXoXXX..",
"  XXXXooXXXoXXXXoXXoXXXoXXXXoXXoXXXXoXXXoXXoXXXXoXXoXXoXXXXoXXX..",
"  XXXXXooooXXXXXooooXXXoXXXXoXXooXXXXoooXXXoXXXXoXXooXXooooXXXX..",
"  XXXXXXXXXXXXXXXXXXXXXXXXXXXXXXXXXXXXXXXXXXXXXXXXXXXXXXXXXXXXX..",
"  XXXXXXXXXXXXXXXXXXXXXXXXXXXXXXXXXXXXXXXXXXXXXXXXXXXXXXXXXXXXX..",
"  XXXXXXXXXXXXXXXXXXXXXXXXXXXXXXXXXXXXXXXXXXXXXXXXXXXXXXXXXXXXX..",
"  XXXXXXXXXXXXXXXXXXXXXXXXXXXXXXXXXXXXXXXXXXXXXXXXXXXXXXXXXXXXX..",
"  XXXXXXXXXXXXXXXXXXXXXXXXXXXXXXXXXXXXXXXXXXXXXXXXXXXXXXXXXXXXX..",
"  ...............................................................",
" ................................................................"};
