/* XPM */
static char * image_name[] = {
"37 24 4 1",
" 	c #E7E7E7E7E7E7",
".	c #6F6F6F6F6F6F",
"X	c #BFBFBFBFBFBF",
"o	c #5B5B00000000",
"                                     ",
"                                    .",
"  XXXXXXXXXXXXXXXXXXXXXXXXXXXXXXXXX..",
"  XXXXXXXXXXXXXXXXXXXXXXXXXXXXXXXXX..",
"  XXXXXXXXXXXXXXXXXXXXXXXXXXXXXXXXX..",
"  XXXXXXXXXXXXXXXXXXXXXXXXXXXXXXXXX..",
"  XXXoXXXXXXoXXXXXXXXXXXXXXXXXXXXXX..",
"  XXXooXXXXXoXXXXXXXXXXXXXXXXXoXXXX..",
"  XXXoXoXXXXoXXXXXXXXXXXXXXXXXoXXXX..",
"  XXXoXoXXXXoXXXooooXXoXXXXoXoooXXX..",
"  XXXoXXoXXXoXXoXXXXoXXoXXoXXXoXXXX..",
"  XXXoXXooXXoXXoXXXXoXXoXXoXXXoXXXX..",
"  XXXoXXXoXXoXXooooooXXXooXXXXoXXXX..",
"  XXXoXXXXoXoXXoXXXXXXXXooXXXXoXXXX..",
"  XXXoXXXXoXoXXoXXXXXXXoXXoXXXoXXXX..",
"  XXXoXXXXXooXXXoXXXoXXoXXoXXXoXXXX..",
"  XXXoXXXXXooXXXXoooXXoXXXXoXXooXXX..",
"  XXXXXXXXXXXXXXXXXXXXXXXXXXXXXXXXX..",
"  XXXXXXXXXXXXXXXXXXXXXXXXXXXXXXXXX..",
"  XXXXXXXXXXXXXXXXXXXXXXXXXXXXXXXXX..",
"  XXXXXXXXXXXXXXXXXXXXXXXXXXXXXXXXX..",
"  XXXXXXXXXXXXXXXXXXXXXXXXXXXXXXXXX..",
"  ...................................",
" ...................................."};
