/* XPM */
static char * image_name[] = {
"26 24 4 1",
" 	c #E7E7E7E7E7E7",
".	c #6F6F6F6F6F6F",
"X	c #BFBFBFBFBFBF",
"o	c #5B5B00000000",
"                          ",
"                         .",
"  XXXXXXXXXXXXXXXXXXXXXX..",
"  XXXXXXXXXXXXXXXXXXXXXX..",
"  XXXXXXXXXXXXXXXXXXXXXX..",
"  XXXXXXXXXXXXXXXXXXXXXX..",
"  XXXoXXXXXXoXXXXXXXXXXX..",
"  XXXoXXXXXXoXXXXXXXXXXX..",
"  XXXoXXXXXXoXXXXXXXXXXX..",
"  XXXoXXXXXXoXXoXoooXXXX..",
"  XXXoXXXXXXoXXooXXoXXXX..",
"  XXXoXXXXXXoXXoXXXXoXXX..",
"  XXXoXXXXXXoXXoXXXXoXXX..",
"  XXXoXXXXXXoXXoXXXXoXXX..",
"  XXXoXXXXXXoXXoXXXXoXXX..",
"  XXXXoXXXXoXXXooXXoXXXX..",
"  XXXXXooooXXXXoXoooXXXX..",
"  XXXXXXXXXXXXXoXXXXXXXX..",
"  XXXXXXXXXXXXXoXXXXXXXX..",
"  XXXXXXXXXXXXXoXXXXXXXX..",
"  XXXXXXXXXXXXXXXXXXXXXX..",
"  XXXXXXXXXXXXXXXXXXXXXX..",
"  ........................",
" ........................."};
