/* XPM */
static char *programm_xpm[] = {
/* width height num_colors chars_per_pixel */
"    32    32        7            1",
/* colors */
". c #000000",
"# c #008000",
"a c #c0c0c0",
"b c #808080",
"c c #ff0000",
"d c #ffff00",
"e c #ffffff",
/* pixels */
"..........dddddddccccddddd####dd",
"...........dddddccccccddd######d",
"............dddcccddcccd###dd###",
"...dddddd....ddccddddccd##dddd##",
"...ddddddd...ddccddddccd##dddd##",
"...ddddddd...ddcccddcccd###dd###",
"...ddddddd...dddcccccccdd######d",
"...ddddddd...ddddccccccdd######d",
"...dddddd....ddddddddccd###dd###",
"............dddddddddccd##dddd##",
"...........ddddddddddccd##dddd##",
"..........ddddddcdddcccd###dd###",
"...dddddddddddddccccccddd######d",
"...ddddddddddddddccccddddd####dd",
"...bbbbbbbbbbbbbbbbbbbbbbbbbbbbb",
"...aaaaaaaaaaaaaaaaaaaaaaaaaaaab",
"...bae..e..eae.e.e.eaee..e.eaaab",
"...bae.ee.eeaee.e.eeae.ee.eeaaab",
"...aaaaaaaaaaaaaaaaaaaaaaaaaaaab",
"...baee....eae.....eae.e..eeaaab",
"...bae..e.eeae.e.eeeaee..eeeaaab",
"baaaaaaaaaaaaaaaaaaaaaaaaaaaaaab",
"ba..aee....eae.e...eae.e...eaaab",
"ba..ae....eeaee.e.eeaee..eeeaaab",
"baaaaaaaaaaaaaaaaaaaaaaaaaaaaaab",
"ba..ae..ee.eae.e..eeae.e..eeaaab",
"ba..aeee...eaee.ee.eaee..eeeaaab",
"baaaaaaaaaaaaaaaaaaaaaaaaaaaaaab",
"ba..ae.ee.eeae.e.e.eae.e.e.eaaab",
"ba..ae.e.eeeae.ee.eeae.e..eeaaab",
"baaaaaaaaaaaaaaaaaaaaaaaaaaaaaab",
"bbbbbbbbbbbbbbbbbbbbbbbbbbbbbbbb"
};
