/* XPM */
static char *timeplot_xpm[] = {
/* width height num_colors chars_per_pixel */
"    32    32        8            1",
/* colors */
". c #000000",
"# c #008000",
"a c #808080",
"b c #ff0000",
"c c #00ff00",
"d c #ffff00",
"e c #0000ff",
"f c #ffffff",
/* pixels */
"..........dddddddbbbbddddd####dd",
"...........dddddbbbbbbddd######d",
"............dddbbbddbbbd###dd###",
"...dddddd....ddbbddddbbd##dddd##",
"...ddddddd...ddbbddddbbd##dddd##",
"...ddddddd...ddbbbddbbbd###dd###",
"...ddddddd...dddbbbbbbbdd######d",
"...ddddddd...ddddbbbbbbdd######d",
"...dddddd....ddddddddbbd###dd###",
"............dddddddddbbd##dddd##",
"...........ddddddddddbbd##dddd##",
"..........ddddddbdddbbbd###dd###",
"...dddddddddddddbbbbbbddd######d",
"...ddddddddddddddbbbbddddd####dd",
"...aaaaaaaaaaaaaaaaaaaaaaaaaaaaa",
"...f.ffffffffffffffffffffffffffa",
"...f.fffffffffffffffffecffffffba",
"...f.fffffffffffffffff..fffbf..a",
"...f.fffffffffffffffb.ff..f..fca",
"...f.ffffffffffffff..fffff.ffffa",
"...f.fbffffffffffb.fefffffeffffa",
"afff..ffffcfffffff.fffffffcffffa",
"a..f.f.fffffffffe.fffffffffffffa",
"afff.f.effffffff.fffffffbffffffa",
"a..f.ff..ffbffc.fffffffffffffffa",
"afff.fffb.......fffffffffffffffa",
"a..f.fffffeffcfbfffffffffffffffa",
"afff.ffffffffffffffffffffffffffa",
"a..f...........................a",
"affffffffffffffffffffffffffffffa",
"afff...f...f...f...f...f...f...a",
"aaaaaaaaaaaaaaaaaaaaaaaaaaaaaaaa"
};
